# xmcd
#
# Track frame offsets:
#	150
#	19854
#	33803
#	52150
#	68637
#	89978
#	104898
#	122585
#	140708
#	157958
#	175126
#	189691
#	213498
#	249069
#
# Disc length: 3876 seconds
#
# Revision: 0
# Processed by: cddbd v1.5.1PL2 Copyright (c) Steve Scherf et al.
# Submitted via: audiograbber 1.83.01
#
DISCID=cb0f220e
DTITLE=Beth Garner - Addictions
DYEAR=2006
DGENRE=Country
TTITLE0=Too Many Cooks
TTITLE1=I Don't Wanna
TTITLE2=Blame It On Me
TTITLE3=Get It Out
TTITLE4=Addictions
TTITLE5=Don't Live There
TTITLE6=Carry On
TTITLE7=Pour Me
TTITLE8=Waiting For The Train
TTITLE9=High Anxiety
TTITLE10=Last Straw
TTITLE11=Believe Me
TTITLE12=I'm Just An Old Chunk Of Coal
TTITLE13=Gegevens track
EXTD=
EXTT0=
EXTT1=
EXTT2=
EXTT3=
EXTT4=
EXTT5=
EXTT6=
EXTT7=
EXTT8=
EXTT9=
EXTT10=
EXTT11=
EXTT12=
EXTT13=
PLAYORDER=
